<?xml version="1.0" encoding="utf-8"?>
<!-- Generator: Adobe Illustrator 25.2.1, SVG Export Plug-In . SVG Version: 6.00 Build 0)  -->
<svg version="1.1" id="Layer_1" xmlns="http://www.w3.org/2000/svg" xmlns:xlink="http://www.w3.org/1999/xlink" x="0px" y="0px"
	 viewBox="0 0 100 100" style="enable-background:new 0 0 100 100;" xml:space="preserve">
<style type="text/css">
	.st0{fill:#010101;}
</style>
<g id="Regular-M" transform="matrix(1 0 0 1 1396.3 1126)">
	<path class="st0" d="M-1370.06-1072.8c0.76-0.09,1.5-0.14,2.23-0.14c0.76,0,1.5,0.06,2.32,0.14v-24.49c0-2.79,1.5-4.41,4.44-4.41
		h12.57v16.41c0,3.56,1.78,5.31,5.31,5.31h16.1v25.37c0,2.82-1.5,4.38-4.44,4.38h-18.67c-0.37,1.61-0.99,3.16-1.81,4.54h20.71
		c5.85,0,8.76-2.97,8.76-8.84v-25.65c0-3.64-0.42-5.23-2.69-7.54l-15.56-15.84c-2.15-2.2-3.93-2.69-7.09-2.69h-13.42
		c-5.82,0-8.76,3-8.76,8.87L-1370.06-1072.8L-1370.06-1072.8z M-1344.24-1085.82v-14.99l16.27,16.58h-14.71
		C-1343.82-1084.24-1344.24-1084.69-1344.24-1085.82z M-1367.77-1040.35c7.76,0,14.35-6.53,14.35-14.35
		c0-7.88-6.47-14.35-14.35-14.35c-7.88,0-14.35,6.47-14.35,14.35S-1375.65-1040.35-1367.77-1040.35z M-1376.75-1054.69
		c0-1.04,0.71-1.75,1.72-1.75h5.54v-5.51c0-1.02,0.68-1.72,1.72-1.72c1.04,0,1.72,0.71,1.72,1.72v5.51h5.51
		c1.04,0,1.75,0.71,1.75,1.75s-0.71,1.72-1.75,1.72h-5.51v5.54c0,1.02-0.68,1.72-1.72,1.72c-1.04,0-1.72-0.71-1.72-1.72v-5.54h-5.54
		C-1376.05-1052.97-1376.75-1053.65-1376.75-1054.69z"/>
</g>
</svg>
