<?xml version="1.0" encoding="utf-8"?>
<!-- Generator: Adobe Illustrator 25.2.1, SVG Export Plug-In . SVG Version: 6.00 Build 0)  -->
<svg version="1.1" id="Layer_1" xmlns="http://www.w3.org/2000/svg" xmlns:xlink="http://www.w3.org/1999/xlink" x="0px" y="0px"
	 viewBox="0 0 32 32" style="enable-background:new 0 0 32 32;" xml:space="preserve">
<g id="Regular-M_2_" transform="matrix(1 0 0 1 1389.1 1126)">
	<path d="M-1381.3-1097.3h16.9c2.6,0,4.1-1.5,4.1-4.5v-12.4l-2.3,2.3v9.9c0,1.5-0.8,2.3-1.8,2.3h-16.8c-1.4,0-2.2-0.8-2.2-2.3v-16.3
		c0-1.5,0.8-2.3,2.2-2.3h10.1l2.3-2.3h-12.5c-3,0-4.5,1.5-4.5,4.5v16.6C-1385.8-1098.7-1384.3-1097.3-1381.3-1097.3z"/>
</g>
<g id="Regular-M" transform="matrix(1 0 0 1 1386.81 1126)">
	<path d="M-1375.1-1106.3h1.3c0.3,0,0.4-0.1,0.7-0.3l0.7-0.6l0,0c0.4,0.4,1,0.5,1.5,0.2l3.7-1.5c0.3-0.1,0.4-0.2,0.6-0.4l10.6-10.5
		c1-1,1-2.2,0-3.3l-2.3-2.3c-1.1-1.1-2.3-1.1-3.3,0l-10.6,10.5c-0.2,0.2-0.3,0.3-0.4,0.6l-1.6,3.7c-0.2,0.5-0.2,1.1,0.2,1.5
		l-1.5,1.6C-1375.7-1106.7-1375.6-1106.3-1375.1-1106.3z M-1360.5-1123.7c0.3-0.3,0.7-0.3,1,0l2.3,2.4c0.3,0.3,0.3,0.7,0,1l-0.8,0.8
		l-3.3-3.3L-1360.5-1123.7z M-1370.5-1113.7l8.1-8.1l3.3,3.3l-8.1,8.1L-1370.5-1113.7z M-1370.9-1108.5c-0.2,0.1-0.4,0.1-0.6-0.1
		l-0.8-0.8c-0.2-0.2-0.2-0.4-0.1-0.6l1.1-2.5l2.9,2.9L-1370.9-1108.5z"/>
</g>
</svg>
