<?xml version="1.0" encoding="utf-8"?>
<!-- Generator: Adobe Illustrator 25.2.1, SVG Export Plug-In . SVG Version: 6.00 Build 0)  -->
<svg version="1.1" id="Layer_1" xmlns="http://www.w3.org/2000/svg" xmlns:xlink="http://www.w3.org/1999/xlink" x="0px" y="0px"
	 viewBox="0 0 32 32" style="enable-background:new 0 0 32 32;" xml:space="preserve">
<g id="Regular-M_2_" transform="matrix(1 0 0 1 1389.1 1126)">
	<path d="M-1381.3-1097.3h16.9c2.6,0,4.1-1.5,4.1-4.5v-13.4l-2.3,2.3v10.9c0,1.5-0.8,2.3-1.8,2.3h-16.8c-1.4,0-2.2-0.8-2.2-2.3
		v-16.3c0-1.5,0.8-2.3,2.2-2.3h11.1l2.3-2.3h-13.5c-3,0-4.5,1.5-4.5,4.5v16.6C-1385.8-1098.7-1384.3-1097.3-1381.3-1097.3z"/>
</g>
<g>
	<g>
		<path d="M28.5,2.2c0.1,0,0.2,0,0.3,0.1l1,1C30,3.5,30,3.8,29.8,4l-10,10.5L17.4,12l10.8-9.7C28.3,2.2,28.4,2.2,28.5,2.2 M28.5,0.5
			c-0.5,0-1,0.2-1.4,0.5L15.6,11.4c-0.3,0.3-0.4,0.8,0,1.1l3.7,3.8c0.2,0.2,0.4,0.2,0.6,0.2s0.4-0.1,0.6-0.2L31.1,5.2
			c0.8-0.8,0.8-2.1,0-3l-1-1C29.6,0.7,29.1,0.5,28.5,0.5L28.5,0.5z"/>
	</g>
	<path d="M14,18.7l-1-1c-0.1-0.1-0.2-0.1-0.3,0l-1,1c-0.1,0.1-0.1,0.3,0.1,0.4l1.4,0.6c0.1,0,0.2,0,0.2,0l0.6-0.6
		C14.1,19,14.1,18.8,14,18.7z"/>
	<path d="M13.9,19l-1.1-1.2c-0.1-0.1-0.1-0.3,0-0.4c0.5-0.5,1.1-1.1,1.5-2.3c0.4-1.1,0.4-2.1,0.4-2.7c0-0.1,0-0.1,0.1-0.2L15,12
		c0.3-0.3,0.7-0.3,0.9,0l3.8,3.9c0.3,0.3,0.3,0.7,0,0.9L19.5,17c-0.1,0.1-0.1,0.1-0.2,0.1c-0.6,0-1.6,0-2.7,0.3s-1.8,1-2.3,1.4
		C14.2,19.1,14,19.1,13.9,19z"/>
</g>
</svg>
