<?xml version="1.0" encoding="utf-8"?>
<!-- Generator: Adobe Illustrator 25.2.1, SVG Export Plug-In . SVG Version: 6.00 Build 0)  -->
<svg version="1.1" id="Layer_1" xmlns="http://www.w3.org/2000/svg" xmlns:xlink="http://www.w3.org/1999/xlink" x="0px" y="0px"
	 viewBox="0 0 32 32" style="enable-background:new 0 0 32 32;" xml:space="preserve">
<g id="Regular-M_1_" transform="matrix(1 0 0 1 1389.1 1126)">
	<path d="M-1381.3-1097.3h16.9c2.6,0,4.1-1.5,4.1-4.5v-10.4l-2.3,2.3v7.9c0,1.5-0.8,2.3-1.8,2.3h-16.8c-1.4,0-2.2-0.8-2.2-2.3v-16.3
		c0-1.5,0.8-2.3,2.2-2.3h8.1l2.3-2.3h-10.5c-3,0-4.5,1.5-4.5,4.5v16.6C-1385.8-1098.7-1384.3-1097.3-1381.3-1097.3z"/>
</g>
<path d="M17.9,18.8h-3.6l-2.6-2.7l4.9-5l4.5,4.5C21,15.6,17.9,18.8,17.9,18.8z M11.3,15.8L11.3,15.8L11.3,15.8
	C11.3,15.8,11.3,15.8,11.3,15.8z M30.6,6.5l-5.1-5.2c-0.5-0.5-1.4-0.5-1.9,0L10.1,15.2c-0.5,0.5-0.5,1.4,0,1.9v0l3,3.1
	c0.2,0.3,0.6,0.4,0.9,0.4h4c0.4,0,0.7-0.1,0.9-0.4L30.6,8.4C31.1,7.9,31.1,7.1,30.6,6.5L30.6,6.5z"/>
</svg>
