<?xml version="1.0" encoding="utf-8"?>
<!-- Generator: Adobe Illustrator 25.2.1, SVG Export Plug-In . SVG Version: 6.00 Build 0)  -->
<svg version="1.1" id="Layer_1" xmlns="http://www.w3.org/2000/svg" xmlns:xlink="http://www.w3.org/1999/xlink" x="0px" y="0px"
	 viewBox="0 0 100 100" style="enable-background:new 0 0 100 100;" xml:space="preserve">
<style type="text/css">
	.st0{fill:#010101;}
</style>
<path class="st0" d="M20.67,87.09c7.75,0,14.31-6.48,14.31-14.31c0-7.83-6.48-14.31-14.31-14.31c-7.86,0-14.31,6.48-14.31,14.31
	C6.36,80.66,12.81,87.09,20.67,87.09z M11.72,72.77c0-1.04,0.68-1.72,1.72-1.72h5.49v-5.49c0-1.04,0.68-1.72,1.75-1.72
	c1.04,0,1.72,0.68,1.72,1.72v5.49h5.49c1.04,0,1.75,0.68,1.75,1.72c0,1.07-0.7,1.75-1.75,1.75h-5.49v5.49
	c0,1.04-0.68,1.75-1.72,1.75c-1.07,0-1.75-0.7-1.75-1.75v-5.49h-5.49C12.39,74.52,11.72,73.85,11.72,72.77z"/>
<path class="st0" d="M73.11,28.45H46.14c-1.91,0-3.06-0.45-4.47-1.65l-1.72-1.4c-1.85-1.57-3.29-2.08-6.06-2.08h-8.01
	c-4.91,0-7.75,2.81-7.75,8.45v22.38c0.83-0.11,1.67-0.19,2.52-0.19c0.67,0,1.34,0.04,2,0.11V43.25h54.73V65.8
	c0,2.89-1.6,4.38-4.39,4.38H39.3c0.11,0.85,0.2,1.71,0.2,2.59c0,0.65-0.03,1.3-0.1,1.93h34.55c5.03,0,7.98-2.92,7.98-8.71V37.16
	C81.92,31.37,78.95,28.45,73.11,28.45z M77.4,39.01H22.67v-6.99c0-2.78,1.46-4.21,4.16-4.21h5.93c1.85,0,2.97,0.48,4.41,1.69
	l1.72,1.43c1.82,1.52,3.32,2.05,6.09,2.05h28.06c2.78,0,4.39,1.52,4.39,4.44L77.4,39.01L77.4,39.01z"/>
</svg>
