<?xml version="1.0" encoding="utf-8"?>
<!-- Generator: Adobe Illustrator 25.2.1, SVG Export Plug-In . SVG Version: 6.00 Build 0)  -->
<svg version="1.1" id="Layer_1" xmlns="http://www.w3.org/2000/svg" xmlns:xlink="http://www.w3.org/1999/xlink" x="0px" y="0px"
	 viewBox="0 0 32 32" style="enable-background:new 0 0 32 32;" xml:space="preserve">
<g id="Regular-M_1_" transform="matrix(1 0 0 1 1389.1 1126)">
	<path d="M-1358.8-1122.3l1-1.1c0.5-0.5,0.5-1.2,0-1.7l-0.3-0.3c-0.4-0.4-1.2-0.4-1.6,0.1l-1.1,1L-1358.8-1122.3z M-1376.1-1106.6
		l2.8-1.2l13.4-13.4l-2-1.9l-13.4,13.4l-1.3,2.7C-1376.7-1106.8-1376.4-1106.5-1376.1-1106.6z M-1381.3-1097.3h16.9
		c2.6,0,4.1-1.5,4.1-4.5v-15.4l-2.3,2.3v12.9c0,1.5-0.8,2.3-1.8,2.3h-16.8c-1.4,0-2.2-0.8-2.2-2.3v-16.3c0-1.5,0.8-2.3,2.2-2.3h13.1
		l2.3-2.3h-15.5c-3,0-4.5,1.5-4.5,4.5v16.6C-1385.8-1098.7-1384.3-1097.3-1381.3-1097.3z"/>
</g>
</svg>
